# xmcd
#
# Track frame offsets:
#	150
#	14902
#	32312
#	42035
#	56499
#	70859
#	83994
#	97116
#	113425
#	131342
#	150611
#	165367
#	179529
#	196336
#	209948
#	229189
# Disc length: 3161 seconds
# Revision: 1
# Processed by: cddbd v1.5.1PL0 Copyright (c) Steve Scherf et al.
#
# Submitted via: libkcddb 0.10
#
DISCID=d40c5710
DTITLE=Charile McCoy, Druha Trava - Live in Brno
DYEAR=2003
DGENRE=Unknown
TTITLE0=Scotland
TTITLE1=Texas When I Die
TTITLE2=Midnight Flyer
TTITLE3=I'm So Lonesome I Could Cry
TTITLE4=Take The New River
TTITLE5=Choo Choo Boogie
TTITLE6=Cripple Creek
TTITLE7=Ruby (Are You Mad)
TTITLE8=John Henry
TTITLE9=Wayfaring Stranger
TTITLE10=Kdo to obchazi muj dum
TTITLE11=In The Pines
TTITLE12=Rollin' My Sweet Baby's Arms
TTITLE13=Chatanooga Choo Choo
TTITLE14=Orange Blossom Special
TTITLE15=Amazing Gace
EXTD=
EXTT0=
EXTT1=
EXTT2=
EXTT3=
EXTT4=
EXTT5=
EXTT6=
EXTT7=
EXTT8=
EXTT9=
EXTT10=
EXTT11=
EXTT12=
EXTT13=
EXTT14=
EXTT15=
PLAYORDER=
